<svg width="512pt" height="512pt" viewBox="0 0 512 512" xmlns="http://www.w3.org/2000/svg">
  <path fill="#ff6e00" d="M249.86 0h12.07c41.64 1.06 83.11 12.11 119.35 32.75 48.44 27.11 87.64 70.44 109.62 121.43 13.66 31.19 20.71 65.19 21.1 99.22v8.96c-1.07 36.78-9.8 73.36-26.12 106.38-16.82 34.09-41.23 64.44-71.09 88-30.07 23.9-65.59 40.94-103.12 49.17-16.27 3.74-32.94 5.46-49.6 6.09h-11.94c-41.44-1.04-82.59-12.1-118.77-32.37-40.79-22.81-75.22-56.92-98.19-97.64C12.31 345.64 1.13 304 0 262.17v-9.7c.32-18.75 2.55-37.48 6.89-55.72C21.71 133.22 62.18 76.26 117.05 41.04 156.33 15.28 202.95 1.22 249.86 0m-79.1 155.8c-11.94 7.96-21.23 19.62-26.8 32.81-15.27-1.2-31.03 3.45-42.49 13.77-13.22 11.43-20.66 29.23-19.29 46.68 1.03 16.17 9.46 31.58 22.27 41.45 9.77 7.68 22.08 12.08 34.51 12.22 43.34.02 86.69-.02 130.03.01 3.81 8.84 13.7 14.09 23.15 12.91 7.35-.77 14.06-5.6 17.19-12.28 4.11-8.49 2.09-19.52-4.78-25.99-6.16-5.89-15.8-7.77-23.71-4.63-5.52 2.15-9.88 6.51-12.91 11.51-42.96 0-85.91.04-128.87-.02-13.91-.04-27.4-8.16-33.88-20.48-6.37-11.66-6.2-26.59.45-38.1 5.55-9.87 15.64-17.02 26.79-19.01 8.51-1.26 17.16-.4 25.73-.65 1.67-10.72 5.43-21.63 13.39-29.36 12.8-13.14 32.85-18.11 50.48-13.62 11.83 2.99 22.3 10.4 29.63 20.1 5.66-2.22 11.37-4.38 17.39-5.41-11.31-18.4-31.39-31.14-52.9-33.33-15.85-1.68-32.19 2.49-45.38 11.42m65.71 46.74c-12.76 10.96-21.48 26.23-25.12 42.61-17.57 1.99-34.37 11.43-44.5 26.03 31.52.04 63.03 0 94.55.02 8.37-9.73 21.91-15.22 34.63-12.2 16.54 3.37 28.98 20.09 27.24 36.93-1.11 15.88-14.5 29.63-30.25 31.52-11.88 1.7-23.88-3.82-31.63-12.72-34.78.01-69.56-.01-104.34.01 3.12 23.13 20.38 43.59 42.72 50.42 10.71 3.64 22.15 2.74 33.27 2.84h113.93c8.72-.08 17.56.46 26.16-1.36 19.54-3.73 37.13-16.26 47.13-33.44 9.74-16.45 12.39-36.97 6.91-55.3-4.4-14.97-14.05-28.27-26.76-37.3-11.59-8.33-25.78-12.86-40.04-12.91-11.8-23.8-35.93-41.07-62.4-43.97-21.92-2.67-44.9 4.18-61.5 18.82z"/>
  <g fill="#fff">
    <path d="M170.76 155.8c13.19-8.93 29.53-13.1 45.38-11.42 21.51 2.19 41.59 14.93 52.9 33.33-6.02 1.03-11.73 3.19-17.39 5.41-7.33-9.7-17.8-17.11-29.63-20.1-17.63-4.49-37.68.48-50.48 13.62-7.96 7.73-11.72 18.64-13.39 29.36-8.57.25-17.22-.61-25.73.65-11.15 1.99-21.24 9.14-26.79 19.01-6.65 11.51-6.82 26.44-.45 38.1 6.48 12.32 19.97 20.44 33.88 20.48 42.96.06 85.91.02 128.87.02 3.03-5 7.39-9.36 12.91-11.51 7.91-3.14 17.55-1.26 23.71 4.63 6.87 6.47 8.89 17.5 4.78 25.99-3.13 6.68-9.84 11.51-17.19 12.28-9.45 1.18-19.34-4.07-23.15-12.91-43.34-.03-86.69.01-130.03-.01-12.43-.14-24.74-4.54-34.51-12.22-12.81-9.87-21.24-25.28-22.27-41.45-1.37-17.45 6.07-35.25 19.29-46.68 11.46-10.32 27.22-14.97 42.49-13.77 5.57-13.19 14.86-24.85 26.8-32.81z"/>
    <path d="M236.47 202.54c16.6-14.64 39.58-21.49 61.5-18.82 26.47 2.9 50.6 20.17 62.4 43.97 14.26.05 28.45 4.58 40.04 12.91 12.71 9.03 22.36 22.33 26.76 37.3 5.48 18.33 2.83 38.85-6.91 55.3-10 17.18-27.59 29.71-47.13 33.44-8.6 1.82-17.44 1.28-26.16 1.36H233.04c-11.12-.1-22.56.8-33.27-2.84-22.34-6.83-39.6-27.29-42.72-50.42 34.78-.02 69.56 0 104.34-.01 7.75 8.9 19.75 14.42 31.63 12.72 15.75-1.89 29.14-15.64 30.25-31.52 1.74-16.84-10.7-33.56-27.24-36.93-12.72-3.02-26.26 2.47-34.63 12.2-31.52-.02-63.03.02-94.55-.02 10.13-14.6 26.93-24.04 44.5-26.03 3.64-16.38 12.36-31.65 25.12-42.61z"/>
  </g>
</svg>
